<?xml version="1.0" encoding="utf-8"?>
<svg version="1.1" id="Layer_1" xmlns="http://www.w3.org/2000/svg" xmlns:xlink="http://www.w3.org/1999/xlink" x="0px" y="0px"
	 viewBox="0 0 20 20" style="enable-background:new 0 0 20 20;" fill="white" xml:space="preserve">
<path id="pinterest" d="M10,2c-4.4,0-8,3.6-8,8c0,3.3,2,6.1,4.8,7.3c0-0.6,0-1.2,0.1-1.8c0.2-0.6,1-4.4,1-4.4s-0.3-0.5-0.3-1.3
	c0-1.2,0.7-2.1,1.5-2.1c0.7,0,1.1,0.5,1.1,1.2c0,0.7-0.5,1.8-0.7,2.8c-0.2,0.8,0.4,1.5,1.3,1.5c1.5,0,2.5-1.9,2.5-4.3
	c0-1.8-1.2-3.1-3.3-3.1c-2.4,0-3.9,1.8-3.9,3.8c0,0.7,0.2,1.2,0.5,1.6c0.1,0.2,0.2,0.2,0.1,0.4c0,0.1-0.1,0.5-0.2,0.6
	c-0.1,0.2-0.2,0.3-0.4,0.2c-1.1-0.5-1.6-1.7-1.6-3.1c0-2.3,1.9-5,5.7-5c3.1,0,5.1,2.2,5.1,4.6c0,3.1-1.7,5.5-4.3,5.5
	c-0.9,0-1.7-0.5-2-1c0,0-0.5,1.8-0.6,2.2c-0.2,0.6-0.5,1.2-0.8,1.7C8.5,17.9,9.2,18,10,18c4.4,0,8-3.6,8-8C18,5.6,14.4,2,10,2z"/>
</svg>
