<?xml version="1.0" encoding="utf-8"?>
<svg version="1.1" id="Layer_1" xmlns="http://www.w3.org/2000/svg" xmlns:xlink="http://www.w3.org/1999/xlink" x="0px" y="0px"
	 viewBox="0 0 20 20" style="enable-background:new 0 0 20 20;" fill="white" xml:space="preserve">
<g id="instagram">
	<path d="M10,5.8c-2.3,0-4.1,1.8-4.1,4.1s1.8,4.1,4.1,4.1s4.1-1.9,4.1-4.1S12.3,5.8,10,5.8z M10,12.6c-1.5,0-2.6-1.2-2.6-2.6
		S8.5,7.3,10,7.3s2.6,1.2,2.6,2.6S11.5,12.6,10,12.6z"/>
	<circle cx="14.3" cy="5.7" r="0.9"/>
	<path d="M16.7,3.3c-0.8-0.9-2-1.3-3.4-1.3H6.7C3.9,2,2,3.9,2,6.7v6.6c0,1.4,0.5,2.6,1.4,3.5c0.9,0.8,2,1.3,3.4,1.3h6.6
		c1.4,0,2.5-0.5,3.4-1.3c0.9-0.8,1.3-2,1.3-3.4V6.7C18,5.3,17.5,4.2,16.7,3.3z M16.6,13.3c0,1-0.4,1.8-0.9,2.4s-1.4,0.8-2.4,0.8H6.7
		c-1,0-1.8-0.3-2.4-0.8c-0.6-0.6-0.9-1.4-0.9-2.4V6.7c0-1,0.3-1.8,0.9-2.4c0.5-0.5,1.4-0.8,2.4-0.8h6.6c1,0,1.8,0.3,2.4,0.9
		c0.5,0.6,0.9,1.4,0.9,2.3V13.3L16.6,13.3z"/>
</g>
</svg>
