<?xml version="1.0" encoding="utf-8"?>
<svg version="1.1" id="Layer_1" xmlns="http://www.w3.org/2000/svg" xmlns:xlink="http://www.w3.org/1999/xlink" x="0px" y="0px"
	 viewBox="0 0 20 20" style="enable-background:new 0 0 20 20;" fill="white" xml:space="preserve">
<path id="youtube" d="M17.8,6.6c0,0-0.2-1.2-0.6-1.7c-0.6-0.7-1.3-0.7-1.6-0.7C13.4,4,10,4,10,4h0c0,0-3.4,0-5.6,0.2
	c-0.3,0-1,0-1.6,0.7C2.3,5.4,2.2,6.6,2.2,6.6S2,8,2,9.4v1.3c0,1.4,0.2,2.8,0.2,2.8s0.2,1.2,0.6,1.7c0.6,0.7,1.4,0.7,1.8,0.7
	C5.8,16,10,16,10,16s3.4,0,5.6-0.2c0.3,0,1,0,1.6-0.7c0.5-0.5,0.6-1.7,0.6-1.7S18,12,18,10.6V9.4C18,8,17.8,6.6,17.8,6.6z M8,13V7
	l5,3L8,13z"/>
</svg>
