<?xml version="1.0" encoding="utf-8"?>
<!-- Generator: Adobe Illustrator 23.0.3, SVG Export Plug-In . SVG Version: 6.00 Build 0)  -->
<svg version="1.1" id="Layer_1" xmlns="http://www.w3.org/2000/svg" xmlns:xlink="http://www.w3.org/1999/xlink" x="0px" y="0px"
	 viewBox="0 0 151 31" style="enable-background:new 0 0 151 31;" xml:space="preserve">
<style type="text/css">
	.st0{clip-path:url(#SVGID_2_);}
</style>
<g>
	<defs>
		<path id="SVGID_1_" d="M149.7,28.4c0.7,1.5,1.3,2.3,1.3,2.3v0h-4.3l0,0c0,0-0.3-0.7-0.8-1.9l-1.4-3.3h-9.5l-1.3,3.3
			c-0.5,1.3-0.6,1.8-0.6,1.9l0,0h-4.3v0c0,0,0.6-0.8,1.3-2.3l7.4-17.6c0.5-1.1,0.6-1.7,0.6-1.7l0,0h3.4l0,0c0,0,0.2,0.6,0.6,1.7
			L149.7,28.4z M136.4,21.9h6.5l-3.4-7.6h0L136.4,21.9z M121.6,23.4l2.1,3.5c1.4,2.4,2.7,3.9,2.7,3.9v0h-5l0,0c0,0-0.6-1.5-2.1-3.9
			l-1.8-2.8c-0.8-1.2-1.6-1.6-3.7-1.6v4.1c0,2.6,0.2,4.1,0.2,4.1l0,0h-4.2l0,0c0,0,0.2-1.5,0.2-4.1V13.3c0-2.6-0.2-4.1-0.2-4.1l0,0
			h7c4.3,0,7.1,3.2,7.1,6.7c0,2.6-2.1,5.3-4.4,5.8v0C120.3,21.8,121.1,22.5,121.6,23.4z M115.8,19c2.8,0,4-1.5,4-3.1
			c0-1.7-1.3-3.2-3.6-3.2h-2.4v6.2C114.4,19,115.3,19,115.8,19z M94.7,8.8c6.4,0,11.2,4.8,11.2,11.1c0,6.3-4.9,11.1-11.2,11.1
			c-6.3,0-11.2-4.8-11.2-11.1C83.5,13.6,88.4,8.8,94.7,8.8z M94.7,27.4c4.1,0,7.3-3.3,7.3-7.5c0-4.3-3.2-7.5-7.3-7.5
			c-4.1,0-7.2,3.3-7.2,7.5C87.5,24.2,90.7,27.4,94.7,27.4z M69,9.1c6.8,0,11.4,4.5,11.4,10.9c0,6.3-4.8,11-11.5,11
			c-1.9,0-3.5-0.2-5-0.2h-2.3l0,0c0,0,0.2-1.5,0.2-4.1V13.3c0-2.6-0.2-4.1-0.2-4.1l0,0H69z M68.8,27.4c4.6,0,7.7-3.2,7.7-7.4
			c0-4.2-3-7.4-7.8-7.4h-2.9v13.8c0,0.6,0.1,0.7,0.4,0.8C66.7,27.3,67.7,27.4,68.8,27.4z M57.1,9.1c0,0-0.2,1.5-0.2,4.1v13.3
			c0,2.6,0.2,4.1,0.2,4.1l0,0h-3.6L41.6,15.5h0v11.1c0,2.6,0.2,4.1,0.2,4.1l0,0h-3.8l0,0c0,0,0.2-1.5,0.2-4.1V11.3
			c0-0.5-0.3-1.1-0.7-2.1l0,0h4.2l11.8,15.1h0V13.3c0-2.6-0.2-4.1-0.2-4.1l0,0L57.1,9.1L57.1,9.1z M26.4,10.9l7.8,17.6
			c0.7,1.5,1.3,2.3,1.3,2.3v0h-4.3l0,0c0,0-0.3-0.7-0.8-1.9l-1.4-3.3h-9.5l-1.3,3.3c-0.5,1.3-0.6,1.8-0.6,1.9l0,0h-4.3v0
			c0,0,0.6-0.8,1.3-2.3l7.4-17.6c0.5-1.1,0.6-1.7,0.6-1.7l0,0h3.4l0,0C25.8,9.1,26,9.8,26.4,10.9z M20.9,21.9h6.5L24,14.3h0
			L20.9,21.9z M6.4,9.1c4.3,0,8,2.4,8,6.7c0,4.4-3.7,7-8,7c-0.4,0-1.7-0.1-2.3-0.1l0,0v3.9c0,2.6,0.2,4.1,0.2,4.1l0,0H0l0,0
			c0,0,0.2-1.5,0.2-4.1V13.3C0.2,10.6,0,9.1,0,9.1l0,0H6.4z M6.2,19.2c2.7,0,4.2-1.2,4.2-3.4c0-2.3-1.7-3.1-3.9-3.1H4.1v6.4
			C4.6,19.2,5.7,19.2,6.2,19.2z M91.9,7c0-0.4,0.3-0.7,0.8-0.7c0.4,0,0.7,0.3,0.7,0.7c0,0.4-0.3,0.7-0.7,0.7
			C92.2,7.8,91.9,7.5,91.9,7z M91.7,5.7L91.7,5.7l-0.9-4.8l0,0l0.2,0l0,0l2,4.5l0,0L91.7,5.7z M94.7,7.5c-0.4,0-0.8-0.3-0.8-0.7
			c0-0.4,0.3-0.7,0.8-0.7c0.4,0,0.7,0.3,0.7,0.7C95.5,7.2,95.1,7.5,94.7,7.5z M96.8,7.8c-0.4,0-0.8-0.3-0.8-0.7
			c0-0.4,0.3-0.7,0.8-0.7c0.4,0,0.7,0.3,0.7,0.7C97.6,7.5,97.2,7.8,96.8,7.8z M97.8,5.7l-1.3-0.3l0,0l2-4.5l0,0l0.2,0l0,0L97.8,5.7
			L97.8,5.7z M94.7,0h0.2l0,0l0.5,5.3l0,0h-0.6h-0.6l0,0L94.7,0L94.7,0z"/>
	</defs>
	<clipPath id="SVGID_2_">
		<use xlink:href="#SVGID_1_"  style="overflow:visible;"/>
	</clipPath>
	<rect x="-5" y="-5" class="st0" width="161" height="41"/>
</g>
</svg>
