<?xml version="1.0" encoding="utf-8"?>
<!-- Generator: Adobe Illustrator 21.1.0, SVG Export Plug-In . SVG Version: 6.00 Build 0)  -->
<svg version="1.1" id="Layer_2" xmlns="http://www.w3.org/2000/svg" xmlns:xlink="http://www.w3.org/1999/xlink" x="0px" y="0px"
	 width="286.9px" height="49.6px" viewBox="0 0 286.9 49.6" style="enable-background:new 0 0 286.9 49.6;" xml:space="preserve">
<g>
	<polygon points="154.5,18 147.7,25 141,18 139.6,19.4 146.3,26.4 139.6,33.3 141,34.7 147.7,27.7 154.5,34.7 155.9,33.3 
		149.1,26.4 155.9,19.4 	"/>
	<path d="M51.4,15.7c2,0.5,4.5,0.3,6.1-0.5c2.1-1,3.9-2.1,5.2-3.9c0.6-0.7,1.2-2.2,1.4-3.6c0.1-1.1-0.6-2-1.4-2.5
		c-0.6-0.4-1.8-0.6-2.6-0.7c-1-1.3-2.9-1.4-4.5-1c-2.1,0.5-4.1,1.2-5.7,2.6c-1.2,1.1-2.2,2.3-2.4,4c-0.4,1.5,0.3,2.9,1.2,3.9
		c-0.1,1.1-0.1,2.3,0.9,2.8C50.4,17.1,51.1,16.1,51.4,15.7z M60.8,7.2l0.6,0.4c0.4,0.3,0.4,1,0.3,1.5c-1,2.5-4.1,3.6-6.8,4
		c-0.8,0.1-1.9,0.3-2.3-0.2c0.2-0.7,0.5-1.2,0.9-1.7C55.2,9.3,57.5,6.6,60.8,7.2z M49.5,10.4c0.2-2.5,3.2-4.5,5.5-4.2
		c-1.9,1.1-4.1,3.5-4.9,5.3C49.8,11.3,49.5,10.8,49.5,10.4z"/>
	<path d="M86.4,18c-0.4-0.7-0.9-1.7-1.8-2.1c-0.3-0.1-0.8-0.2-0.9,0.2c-0.1,0.4,0,0.8,0,1.2c0.2,1.8,0.7,3.4,1.2,5.1
		c0.4,1.4,0.7,2.8,1,4.3c0.2,1,0.4,2.6,0.1,2.8c-0.3,0.1-0.4-0.2-0.6-0.6c-1.9-2.7-3.5-5.4-5.5-7.9c-0.3-0.4-1.1-1.7-2-1.5
		c-0.5,0.2-0.7,0.5-1,1c-0.9,2.1-1.3,4.5-1.7,6.8c-0.2,1.2-0.3,2.5-0.4,3.6c0,1.5-0.1,3.3,1.3,4c0.4,0.2,1.1,0.2,1.4,0
		c0.4-0.5,0.6-1.2,0.6-1.9c0.1-2.5,0.3-4.8,0.4-7.4c0-0.3,0-0.6,0.1-0.8c0.1-0.2,0.4,0.1,0.5,0.2c0.9,1.6,1.8,3.4,2.7,4.9
		c0.9,1.5,1.8,3.3,3.3,4.1c1.6,0.6,2.7-0.9,3.2-1.9c1.2-2.1,0.8-4.4,0.7-6.9C88.9,22.6,87.8,20.3,86.4,18z"/>
	<path d="M101.8,30.3c-2.6-0.2-6.9,1.5-7.2,1.1c-0.5-0.7,0.1-1.5,0.3-2.1c0.3-0.5,0.6-1.1,0.8-1.5c1.2,0,2.3,0,3.5,0
		c0.9,0,2.7,0,2.8-0.6c0-0.6,0-1.7-0.3-1.8c-1.6-0.5-3.3-0.1-5-0.2L96.5,25c-0.1-0.6,0.1-1.2,0.3-1.8c0.1-0.3,0.2-0.7,0.5-0.8
		l3.5-0.1c1.4-0.1,3.1,0.4,4.1-0.8c0.2-0.3-0.2-0.8-0.4-1.2l-1.3-1.5c-0.4-0.4-0.7-0.5-1.2-0.5c-1.6,0-3.2,0.2-4.7,0.4
		c-2.3,0.3-5.6,0.4-6.5,1.2c-0.3,0.7,0.4,1.4,1,1.7c0.7,0.4,1.7,0.4,2.3,0.6c-0.1,0.3-0.2,0.6-0.3,0.8c-0.3,0.7-0.4,1.5-0.9,2
		c0,0-0.5,0.2-0.9,0.4c-0.3,0.1-0.1,0.5-0.2,0.8c0.1,0.2,0.1,0.4,0.2,0.6c-0.4,1.2-1,2.2-1.4,3.3c-0.5,1.4-0.2,3.3,0.7,4.5
		c1.2,1.5,2.3,1.7,3.8,1.6c2.7-0.3,6.5-2.7,7.1-3.2c0.3-0.2,0.4-0.5,0.4-0.5C102.8,31.6,102.1,30.4,101.8,30.3z"/>
	<path d="M62.1,22.5c3-0.5,6.1-0.7,9.1-0.9c0.8-0.1,1.8-0.1,2.5-0.6c0.3-0.4,0.7-1,0.6-1.5c-0.5-0.3-0.9-0.5-1.4-0.6
		c-1.9-0.5-3.7-0.6-5.6-0.6c-3,0.1-6,0.7-8.6,2.2c-1.3,0.8-1.7,2.3-1.8,3.8c0,1,1.2,1.5,2,1.8c3.1,1.1,6.5,0.2,9.7,0.8
		c1.3,0.4,3,1.1,2.8,1.9c-0.4,1.1-1.7,1.6-2.7,1.9c-1.8,0.6-3.7,1.2-5.8,1c-1-0.1-2.5-0.1-3.3-1.1c-0.2-0.2-0.3-0.5-0.1-0.8
		c0.3-0.7,1.1-0.8,1.8-0.9c1.6,0,4.3,2.2,6.7,1.1c0.6-0.3,1.3-0.4,1.5-1.1c0.1-0.5-0.7-0.6-1.3-0.8c-2.6-0.6-5.6-1.6-8.2-0.5
		c-0.7,0.4-1.3,0.8-1.7,1.4c-0.3,0.4-0.4,0.9-0.3,1.4c0.4,2.1,2.6,3.4,4.3,3.9c3.6,1,7.9,0.9,10.6-1.7c0.7-0.9,1.1-2.2,1-3.5
		c-0.3-1.8-1.3-3.7-3.2-4.2c-3.5-0.8-7.3-0.6-10.8-1.4c-0.1-0.1-0.3-0.2-0.2-0.3C60.5,22.9,61.3,22.7,62.1,22.5z"/>
	<path d="M54.1,21.9c0.1-1.5-0.5-2.8-1.9-3.4c-0.5,0.1-0.5,0.6-0.6,1c-0.8,3.9-1.2,7.8-1.1,11.9c0.1,1.3,0.1,2.6,0.8,3.7
		c0.7,0.2,1.4,0.4,2.2,0.3c0.4-0.2,0.9-0.4,0.9-0.9c0.2-3.6-0.2-7.5-0.3-11.1C54.3,22.9,54.1,22.5,54.1,21.9z"/>
	<path d="M119.3,19.7c-2.1-1.2-3.9,0.9-5.1,2.1c-2.4,2.4-3.9,4.1-5.7,6.9c-0.1,0.2-0.6,0.9-0.7,1c-0.5-1.1-0.1-2.4,0.2-3.3
		c0.6-1.7,1.5-3.3,2.3-4.9c0.3-0.6,0.6-1.2,0.9-1.9c0.2-0.4,0.3-0.9,0.2-1.5c-0.1-0.2-0.2-0.4-0.4-0.3c-1.2,0.6-2,1.9-2.8,2.9
		c-1.8,2.4-3.3,5.8-3.1,9c0.1,1.1,0.5,2.4,1,3.3c-1.5,3.4-2.7,6.9-3.4,10.6c-0.3,1.6,0.1,3.4,0.8,4.7c0.4,0.5,1.2,1.5,2.4,1.4
		c0.3-0.1,0.5-0.3,0.5-0.5l0.5-3.4c0.3-1.7,1.7-6.5,2.3-7.9c0.3-0.8,0.9-1.7,1.1-2.2c2,0.1,3.9-0.5,5.5-1.6c1.8-1.4,3.3-2.7,4.5-4.7
		c1.1-1.9,1.6-4.7,0.6-6.7C120.6,21.4,120.2,20.5,119.3,19.7z M118.4,27.6c-1.2,1.8-4,3.7-5.5,3.9c-1.5,0.2-1.4-0.1-1.4-0.1
		c0.7-1.1,1.2-1.7,1.7-2.4c1.7-2.4,3.3-4.3,5-6.4c0.1-0.2,0.4-0.1,0.5,0.1c0.3,0.6,0.5,1.2,0.5,1.9
		C119.3,25.3,118.9,26.7,118.4,27.6z"/>
	<path d="M44.5,14.3C40.1,9.5,34.4,5.9,28.2,3.6c-1.9-0.8-4-1.4-6-2C15.8-0.1,8-0.9,1.8,1.7C1,2.2,0.3,3.5,0,4.7
		C-0.2,6,2,5.9,2.8,5.8c0.5,0,1.2-0.1,1.5-0.6c0-0.3-0.2-0.3-0.4-0.5C3.6,4.5,3,4.3,2.8,4c0.7-0.6,1.6-0.7,2.4-0.7
		c3.5-0.3,6.6,0.1,9.9,0.5c7.5,1.3,14.5,3.7,20.6,8.1c3,2.2,5.6,4.8,7.5,7.8c0.6,1.8,1.9,3.7,1.6,5.7c-0.1,2.4-1.4,4.2-3.3,5.6
		c-2.9,2-6.3,3.1-9.9,3.4c-2.8,0-4.4,0.2-7.9-0.5l-0.3-0.1c0.1-2.1,0-3.8,0-6.3c0.1-1.2,0-3.2-0.1-4.7c0.8,0,1.3,0,2.4,0.1
		c2.3,0.2,4.6,0.6,6.8,1.2c0.7,0.1,2.3,0.4,2.3,0.9c-0.2,1.3-1.2,2-2.3,2.5v0.2c0.7,0.4,1.9,0.9,3,0.6c1.2-0.4,2.1-1.4,2.6-2.8
		c0.4-1.7-0.7-3-1.8-4c-2.1-1.6-4.5-1.8-7.2-2.3c-2-0.3-3.8-0.4-5.7-0.3h-0.2c-0.1-1.2-0.2-2.5-0.4-3.9c0,0-0.3-2.3-0.7-3.2
		c-0.3-0.7-0.9-1.6-1.5-1.3c-0.4,0.2-0.5,0.7-0.5,1.2c-0.3,1.8-0.7,3.8-0.7,5.7c-0.1,0.5-0.1,1.4-0.2,2.1c0,0-0.3,0-0.8,0.1
		c-3.8,0.6-7.9,1.4-10.6,4.3c-0.7,0.7-0.6,1.9-0.2,2.7c2.8,3.7,6.7,7,11.1,9c0.1,1.1,0.4,2.4,0.9,3.5c0.7,1.1,2.4,0.8,3,0.6
		c0.6-0.4,1-1.3,1-2.3c0.9,0.4,7.8,0.9,11.4,0.4c3.2-0.4,5.9-1.3,8.5-2.9c3.2-2,5.4-4.9,6-8.6c0.3-1.9-0.2-3.3-0.6-4.9
		C47.7,18.6,46.3,16.3,44.5,14.3z M19.1,24.1c-0.2,2.9-0.3,5.5-0.3,8.3c-0.4,0-1-0.2-1.6-0.4c-3.1-1.1-6.1-3.1-8.3-5.7
		c-0.2-0.3-0.3-0.7,0-1.1c2.1-1.6,4.7-1.5,7.2-2.1c1,0.1,2.1-0.2,3,0C19,22.9,19.1,23.6,19.1,24.1z"/>
	<polygon points="243.6,15.6 244,15.6 244.1,15.6 243.7,11.6 243.6,11.6 243.5,11.6 243.5,11.6 243.1,15.6 243.1,15.6 	"/>
	<polygon points="245.9,15.9 245.9,15.9 246.5,12.3 246.5,12.3 246.4,12.2 246.4,12.3 244.9,15.7 244.9,15.7 	"/>
	<path d="M245.1,17.5c0.3,0,0.6-0.2,0.6-0.6c0-0.3-0.2-0.6-0.6-0.6s-0.6,0.2-0.6,0.6C244.6,17.2,244.8,17.5,245.1,17.5z"/>
	<path d="M243.6,17.3c0.3,0,0.6-0.2,0.6-0.6c0-0.3-0.2-0.6-0.6-0.6c-0.3,0-0.6,0.2-0.6,0.6C243,17.1,243.3,17.3,243.6,17.3z"/>
	<polygon points="241.3,15.9 242.2,15.7 242.3,15.7 240.8,12.3 240.7,12.2 240.7,12.3 240.6,12.3 241.3,15.9 	"/>
	<path d="M241.5,16.9c0,0.3,0.2,0.6,0.6,0.6c0.3,0,0.6-0.2,0.6-0.6c0-0.3-0.2-0.6-0.6-0.6C241.7,16.4,241.5,16.6,241.5,16.9z"/>
	<path d="M177.8,18.5H173h0c0,0,0.1,1.2,0.1,3.1v10c0,2-0.1,3.1-0.1,3.1l0,0h3.1v0c0,0-0.1-1.2-0.1-3.1v-2.9l0,0
		c0.4,0,1.4,0.1,1.7,0.1c3.2,0,6-1.9,6-5.3C183.8,20.3,181,18.5,177.8,18.5z M177.6,26.1c-0.4,0-1.2,0-1.6-0.1v-4.8h1.8
		c1.6,0,2.9,0.6,2.9,2.3C180.8,25.2,179.7,26.1,177.6,26.1z"/>
	<path d="M192.7,19.8c-0.4-0.8-0.5-1.3-0.5-1.3l0,0h-2.5l0,0c0,0-0.1,0.5-0.4,1.3L183.7,33c-0.5,1.1-1,1.7-1,1.7v0h3.2l0,0
		c0-0.1,0.1-0.5,0.5-1.5l1-2.5h7.1l1.1,2.5c0.4,1,0.6,1.5,0.6,1.5l0,0h3.2v0c0,0-0.4-0.6-1-1.7L192.7,19.8z M188.6,28.1l2.3-5.8h0
		l2.5,5.8H188.6z"/>
	<path d="M215.5,18.5L215.5,18.5l-2.9,0l0,0c0,0,0.1,1.2,0.1,3.1v8.2h0l-8.8-11.3h-3.1l0,0c0.4,0.8,0.6,1.3,0.6,1.6v11.5
		c0,2-0.1,3.1-0.1,3.1l0,0h2.9l0,0c0,0-0.1-1.2-0.1-3.1v-8.4h0l8.8,11.5h2.7l0,0c0,0-0.1-1.2-0.1-3.1v-10
		C215.4,19.6,215.5,18.5,215.5,18.5z"/>
	<path d="M224.4,18.5H219l0,0c0,0,0.1,1.2,0.1,3.1v10c0,2-0.1,3.1-0.1,3.1l0,0h1.7c1.1,0,2.3,0.2,3.7,0.2c5,0,8.6-3.5,8.6-8.3
		C232.9,21.9,229.5,18.5,224.4,18.5z M224.2,32.2c-0.8,0-1.5,0-1.9-0.2c-0.2-0.1-0.3-0.2-0.3-0.6V21.1h2.2c3.5,0,5.8,2.4,5.8,5.6
		C229.9,29.8,227.7,32.2,224.2,32.2z"/>
	<path d="M243.6,18.2c-4.7,0-8.4,3.7-8.4,8.4c0,4.8,3.7,8.4,8.4,8.4c4.8,0,8.4-3.6,8.4-8.4C252,21.9,248.4,18.2,243.6,18.2z
		 M243.6,32.3c-3,0-5.4-2.5-5.4-5.7s2.3-5.7,5.4-5.7c3.1,0,5.4,2.5,5.4,5.7C249,29.8,246.7,32.3,243.6,32.3z"/>
	<path d="M263.6,29.2c-0.4-0.6-1-1.2-1.6-1.3v0c1.7-0.4,3.3-2.3,3.3-4.3c0-2.7-2.1-5.1-5.3-5.1h-5.2l0,0c0,0,0.1,1.2,0.1,3.1v10
		c0,2-0.1,3.1-0.1,3.1l0,0h3.1l0,0c0,0-0.1-1.2-0.1-3.1v-3.1c1.5,0,2.2,0.3,2.7,1.2l1.3,2.1c1.1,1.8,1.5,2.9,1.5,2.9l0,0h3.7v0
		c0,0-1-1.2-2-2.9L263.6,29.2z M259.3,25.9c-0.4,0-1,0-1.5-0.1v-4.7h1.8c1.7,0,2.7,1.2,2.7,2.5C262.3,24.8,261.3,25.9,259.3,25.9z"
		/>
	<path d="M284.5,33l-5.8-13.3c-0.4-0.8-0.5-1.3-0.5-1.3l0,0h-2.5l0,0c0,0-0.1,0.5-0.4,1.3L269.7,33c-0.5,1.1-1,1.7-1,1.7v0h3.2l0,0
		c0-0.1,0.1-0.5,0.5-1.5l1-2.5h7.1l1.1,2.5c0.4,1,0.6,1.5,0.6,1.5l0,0h3.2v0C285.5,34.8,285.1,34.2,284.5,33z M274.6,28.1l2.3-5.8h0
		l2.5,5.8H274.6z"/>
</g>
</svg>
